<svg xmlns="http://www.w3.org/2000/svg" preserveAspectRatio="none" width="100%" height="100%" viewBox="0 0 1399 75.262">
  <g fill="#00BFFF" fill-rule="evenodd">
<path d="M0 50L117 43L233 54L350 42L466 52L583 52L700 46L816 45L933 42L1049 45L1166 54L1282 48L1399 54L1399 76L1282 76L1166 76L1049 76L933 76L816 76L700 76L583 76L466 76L350 76L233 76L117 76L0 76Z" fill="#00d47d"></path>
<path d="M0 55L117 59L233 58L350 60L466 57L583 55L700 56L816 57L933 53L1049 62L1166 55L1282 60L1399 60L1399 76L1282 76L1166 76L1049 76L933 76L816 76L700 76L583 76L466 76L350 76L233 76L117 76L0 76Z" fill="#1ca3fc"></path>
<path d="M0 61L117 69L233 66L350 66L466 60L583 69L700 68L816 69L933 62L1049 66L1166 64L1282 63L1399 67L1399 76L1282 76L1166 76L1049 76L933 76L816 76L700 76L583 76L466 76L350 76L233 76L117 76L0 76Z" fill="#060b39"></path>
</g>
</svg>
