<svg version="1.0" xmlns="http://www.w3.org/2000/svg"
 width="179.000000pt" height="179.000000pt" viewBox="0 0 179.000000 179.000000"
 preserveAspectRatio="xMidYMid meet">
<g transform="translate(0.000000,179.000000) scale(0.100000,-0.100000)"
fill="#007bff" stroke="none">
<path d="M552 1616 c-366 -167 -373 -170 -367 -195 4 -14 9 -28 11 -30 2 -2
163 66 356 152 194 87 358 157 363 157 6 0 165 -72 355 -160 189 -88 348 -156
352 -152 4 4 9 18 10 31 3 22 -23 37 -352 195 l-355 171 -373 -169z"/>
<path d="M655 1509 l-260 -119 65 0 c60 0 82 7 262 84 l196 85 192 -85 c183
-81 194 -85 256 -82 l64 3 -187 84 c-104 47 -220 99 -258 117 l-71 32 -259
-119z"/>
<path d="M200 1290 l0 -30 715 0 715 0 0 30 0 30 -715 0 -715 0 0 -30z"/>
<path d="M247 1173 c-4 -3 -7 -164 -7 -357 0 -399 0 -399 67 -404 75 -6 73
-19 73 399 l0 369 -25 0 -25 0 0 -375 c0 -368 0 -375 -20 -375 -20 0 -20 7
-20 375 0 357 -1 375 -18 375 -10 0 -22 -3 -25 -7z"/>
<path d="M490 795 c0 -336 2 -385 15 -385 13 0 15 30 15 213 0 116 4 205 9
197 4 -8 23 -104 41 -212 24 -141 37 -198 47 -198 11 0 13 72 13 385 0 250 -4
385 -10 385 -6 0 -10 -79 -10 -217 0 -120 -4 -211 -9 -203 -4 8 -23 106 -41
218 -29 178 -35 202 -51 202 -18 0 -19 -17 -19 -385z"/>
<path d="M745 828 c-4 -194 -5 -369 -4 -388 l4 -35 56 -3 c49 -3 57 0 62 17 4
17 -1 20 -32 23 l-36 3 0 175 0 175 28 3 c35 4 33 33 -3 42 l-25 6 0 149 0
150 38 3 c24 2 37 8 37 18 0 11 -14 14 -59 14 l-59 0 -7 -352z"/>
<path d="M982 1164 c-21 -14 -22 -23 -22 -132 0 -110 3 -125 41 -242 33 -104
41 -143 46 -235 5 -93 3 -112 -10 -124 -29 -24 -37 -2 -37 100 0 92 -1 99 -20
99 -19 0 -20 -7 -20 -105 0 -95 2 -105 20 -115 12 -6 35 -10 53 -8 49 5 59 34
53 158 -3 87 -11 128 -45 238 -40 127 -42 138 -39 245 3 104 4 112 23 112 18
0 20 -8 23 -97 2 -90 4 -98 22 -98 19 0 20 7 20 94 0 73 -4 98 -16 110 -20 20
-63 20 -92 0z"/>
<path d="M1210 1160 c-19 -19 -20 -33 -20 -368 0 -394 0 -392 70 -392 57 0 70
24 70 132 0 87 0 88 -25 88 -24 0 -24 -1 -27 -97 -2 -79 -6 -98 -18 -98 -13 0
-15 47 -15 365 0 358 0 365 20 365 18 0 20 -8 23 -97 2 -90 4 -98 22 -98 19 0
20 7 20 100 0 88 -2 100 -19 110 -31 16 -79 12 -101 -10z"/>
<path d="M1450 1161 c-11 -21 -15 -707 -4 -735 7 -19 94 -22 112 -4 9 9 12
105 12 369 0 400 2 389 -70 389 -29 0 -42 -5 -50 -19z m84 -17 c8 -20 8 -662
0 -691 -8 -28 -30 -36 -49 -17 -13 13 -15 64 -15 363 0 191 3 351 7 354 12 13
51 7 57 -9z"/>
<path d="M170 310 l0 -30 730 0 730 0 0 30 0 30 -730 0 -730 0 0 -30z"/>
<path d="M70 175 l0 -35 828 2 827 3 3 33 3 32 -830 0 -831 0 0 -35z"/>
<path d="M0 40 l0 -40 895 0 895 0 0 40 0 40 -895 0 -895 0 0 -40z"/>
</g>
</svg>
